<mxfile host="Electron" agent="Mozilla/5.0 (X11; Linux x86_64) AppleWebKit/537.36 (KHTML, like Gecko) draw.io/26.0.16 Chrome/132.0.6834.196 Electron/34.2.0 Safari/537.36" version="26.0.16">
  <diagram name="Page-1" id="iDFN0tGlTUZPm3mPSUC2">
    <mxGraphModel dx="1434" dy="875" grid="1" gridSize="10" guides="1" tooltips="1" connect="1" arrows="1" fold="1" page="1" pageScale="1" pageWidth="827" pageHeight="1169" math="0" shadow="0">
      <root>
        <mxCell id="0" />
        <mxCell id="1" parent="0" />
        <mxCell id="2zKIwwScLKj-O0Kgd3oe-6" style="edgeStyle=orthogonalEdgeStyle;rounded=0;orthogonalLoop=1;jettySize=auto;html=1;" edge="1" parent="1" source="2zKIwwScLKj-O0Kgd3oe-1" target="2zKIwwScLKj-O0Kgd3oe-2">
          <mxGeometry relative="1" as="geometry" />
        </mxCell>
        <mxCell id="2zKIwwScLKj-O0Kgd3oe-13" value="" style="edgeStyle=orthogonalEdgeStyle;rounded=0;orthogonalLoop=1;jettySize=auto;html=1;" edge="1" parent="1" source="2zKIwwScLKj-O0Kgd3oe-1" target="2zKIwwScLKj-O0Kgd3oe-3">
          <mxGeometry relative="1" as="geometry" />
        </mxCell>
        <mxCell id="2zKIwwScLKj-O0Kgd3oe-1" value="cron job" style="sketch=0;outlineConnect=0;fontColor=#232F3E;gradientColor=none;strokeColor=#ffffff;fillColor=#232F3E;dashed=0;verticalLabelPosition=middle;verticalAlign=bottom;align=center;html=1;whiteSpace=wrap;fontSize=10;fontStyle=1;spacing=3;shape=mxgraph.aws4.productIcon;prIcon=mxgraph.aws4.ec2;" vertex="1" parent="1">
          <mxGeometry x="360" y="300" width="80" height="100" as="geometry" />
        </mxCell>
        <mxCell id="2zKIwwScLKj-O0Kgd3oe-8" style="edgeStyle=orthogonalEdgeStyle;rounded=0;orthogonalLoop=1;jettySize=auto;html=1;" edge="1" parent="1" source="2zKIwwScLKj-O0Kgd3oe-2" target="2zKIwwScLKj-O0Kgd3oe-1">
          <mxGeometry relative="1" as="geometry" />
        </mxCell>
        <mxCell id="2zKIwwScLKj-O0Kgd3oe-24" style="edgeStyle=orthogonalEdgeStyle;rounded=0;orthogonalLoop=1;jettySize=auto;html=1;" edge="1" parent="1" source="2zKIwwScLKj-O0Kgd3oe-2" target="2zKIwwScLKj-O0Kgd3oe-21">
          <mxGeometry relative="1" as="geometry" />
        </mxCell>
        <mxCell id="2zKIwwScLKj-O0Kgd3oe-2" value="raw data" style="sketch=0;outlineConnect=0;fontColor=#232F3E;gradientColor=none;strokeColor=#ffffff;fillColor=#232F3E;dashed=0;verticalLabelPosition=middle;verticalAlign=bottom;align=center;html=1;whiteSpace=wrap;fontSize=10;fontStyle=1;spacing=3;shape=mxgraph.aws4.productIcon;prIcon=mxgraph.aws4.s3;" vertex="1" parent="1">
          <mxGeometry x="660" y="300" width="80" height="100" as="geometry" />
        </mxCell>
        <mxCell id="2zKIwwScLKj-O0Kgd3oe-15" style="edgeStyle=orthogonalEdgeStyle;rounded=0;orthogonalLoop=1;jettySize=auto;html=1;" edge="1" parent="1" source="2zKIwwScLKj-O0Kgd3oe-3" target="2zKIwwScLKj-O0Kgd3oe-14">
          <mxGeometry relative="1" as="geometry" />
        </mxCell>
        <mxCell id="2zKIwwScLKj-O0Kgd3oe-25" style="edgeStyle=orthogonalEdgeStyle;rounded=0;orthogonalLoop=1;jettySize=auto;html=1;" edge="1" parent="1" source="2zKIwwScLKj-O0Kgd3oe-3" target="2zKIwwScLKj-O0Kgd3oe-21">
          <mxGeometry relative="1" as="geometry" />
        </mxCell>
        <mxCell id="2zKIwwScLKj-O0Kgd3oe-3" value="Amazon RDS" style="sketch=0;outlineConnect=0;fontColor=#232F3E;gradientColor=none;strokeColor=#ffffff;fillColor=#232F3E;dashed=0;verticalLabelPosition=middle;verticalAlign=bottom;align=center;html=1;whiteSpace=wrap;fontSize=10;fontStyle=1;spacing=3;shape=mxgraph.aws4.productIcon;prIcon=mxgraph.aws4.rds;" vertex="1" parent="1">
          <mxGeometry x="140" y="440" width="80" height="100" as="geometry" />
        </mxCell>
        <mxCell id="2zKIwwScLKj-O0Kgd3oe-5" style="edgeStyle=orthogonalEdgeStyle;rounded=0;orthogonalLoop=1;jettySize=auto;html=1;" edge="1" parent="1" source="2zKIwwScLKj-O0Kgd3oe-4" target="2zKIwwScLKj-O0Kgd3oe-1">
          <mxGeometry relative="1" as="geometry" />
        </mxCell>
        <mxCell id="2zKIwwScLKj-O0Kgd3oe-4" value="" style="image;aspect=fixed;perimeter=ellipsePerimeter;html=1;align=center;shadow=0;dashed=0;spacingTop=3;image=img/lib/active_directory/internet_globe.svg;" vertex="1" parent="1">
          <mxGeometry x="350" y="70" width="100" height="100" as="geometry" />
        </mxCell>
        <mxCell id="2zKIwwScLKj-O0Kgd3oe-30" style="edgeStyle=orthogonalEdgeStyle;rounded=0;orthogonalLoop=1;jettySize=auto;html=1;" edge="1" parent="1" source="2zKIwwScLKj-O0Kgd3oe-14" target="2zKIwwScLKj-O0Kgd3oe-17">
          <mxGeometry relative="1" as="geometry" />
        </mxCell>
        <mxCell id="2zKIwwScLKj-O0Kgd3oe-14" value="express js" style="sketch=0;outlineConnect=0;fontColor=#232F3E;gradientColor=none;strokeColor=#ffffff;fillColor=#232F3E;dashed=0;verticalLabelPosition=middle;verticalAlign=bottom;align=center;html=1;whiteSpace=wrap;fontSize=10;fontStyle=1;spacing=3;shape=mxgraph.aws4.productIcon;prIcon=mxgraph.aws4.ec2;" vertex="1" parent="1">
          <mxGeometry x="70" y="630" width="80" height="100" as="geometry" />
        </mxCell>
        <mxCell id="2zKIwwScLKj-O0Kgd3oe-17" value="react js" style="sketch=0;outlineConnect=0;fontColor=#232F3E;gradientColor=none;strokeColor=#ffffff;fillColor=#232F3E;dashed=0;verticalLabelPosition=middle;verticalAlign=bottom;align=center;html=1;whiteSpace=wrap;fontSize=10;fontStyle=1;spacing=3;shape=mxgraph.aws4.productIcon;prIcon=mxgraph.aws4.ec2;" vertex="1" parent="1">
          <mxGeometry x="360" y="720" width="80" height="100" as="geometry" />
        </mxCell>
        <mxCell id="2zKIwwScLKj-O0Kgd3oe-29" style="edgeStyle=orthogonalEdgeStyle;rounded=0;orthogonalLoop=1;jettySize=auto;html=1;" edge="1" parent="1" source="2zKIwwScLKj-O0Kgd3oe-21" target="2zKIwwScLKj-O0Kgd3oe-17">
          <mxGeometry relative="1" as="geometry" />
        </mxCell>
        <mxCell id="2zKIwwScLKj-O0Kgd3oe-21" value="fastAPI" style="sketch=0;outlineConnect=0;fontColor=#232F3E;gradientColor=none;strokeColor=#ffffff;fillColor=#232F3E;dashed=0;verticalLabelPosition=middle;verticalAlign=bottom;align=center;html=1;whiteSpace=wrap;fontSize=10;fontStyle=1;spacing=3;shape=mxgraph.aws4.productIcon;prIcon=mxgraph.aws4.ec2;" vertex="1" parent="1">
          <mxGeometry x="630" y="620" width="80" height="100" as="geometry" />
        </mxCell>
      </root>
    </mxGraphModel>
  </diagram>
</mxfile>
